HIERARCHY
ROOT Hips
{
 OFFSET 0.000000 0.000000 0.000000
 CHANNELS 6 Xposition Yposition Zposition Yrotation Xrotation Zrotation
 JOINT Chest
 {
  OFFSET 0.000000 9.588913 -0.003946
  CHANNELS 3 Yrotation Xrotation Zrotation
  JOINT Chest2
  {
   OFFSET 0.000000 9.541882 0.008053
   CHANNELS 3 Yrotation Xrotation Zrotation
   JOINT Chest3
   {
    OFFSET 0.000000 9.501360 0.000000
    CHANNELS 3 Yrotation Xrotation Zrotation
    JOINT Chest4
    {
     OFFSET 0.000000 9.491660 0.000000
     CHANNELS 3 Yrotation Xrotation Zrotation
     JOINT Neck
     {
      OFFSET 0.000000 14.331917 0.000000
      CHANNELS 3 Yrotation Xrotation Zrotation
      JOINT Head
      {
       OFFSET 0.000000 8.884799 0.017034
       CHANNELS 3 Yrotation Xrotation Zrotation
       End Site
       {
        OFFSET 0.000000 16.896195 0.008993
       }
      }
     }
     JOINT RightCollar
     {
      OFFSET -2.923010 9.499495 0.000000
      CHANNELS 3 Yrotation Xrotation Zrotation
      JOINT RightShoulder
      {
       OFFSET -13.795216 0.000000 0.000000
       CHANNELS 3 Yrotation Xrotation Zrotation
       JOINT RightElbow
       {
        OFFSET -30.272209 0.000000 0.000000
        CHANNELS 3 Yrotation Xrotation Zrotation
        JOINT RightWrist
        {
         OFFSET -24.478199 0.000000 0.000000
         CHANNELS 3 Yrotation Xrotation Zrotation
         End Site
         {
          OFFSET -18.090752 0.000000 0.000000
         }
        }
       }
      }
     }
     JOINT LeftCollar
     {
      OFFSET 2.923010 9.499495 0.000000
      CHANNELS 3 Yrotation Xrotation Zrotation
      JOINT LeftShoulder
      {
       OFFSET 13.795216 0.000000 0.000000
       CHANNELS 3 Yrotation Xrotation Zrotation
       JOINT LeftElbow
       {
        OFFSET 30.272209 0.000000 0.000000
        CHANNELS 3 Yrotation Xrotation Zrotation
        JOINT LeftWrist
        {
         OFFSET 24.478199 0.000000 0.000000
         CHANNELS 3 Yrotation Xrotation Zrotation
         End Site
         {
          OFFSET 18.090752 0.000000 0.000000
         }
        }
       }
      }
     }
    }
   }
  }
 }
 JOINT RightHip
 {
  OFFSET -7.826875 0.019532 0.001973
  CHANNELS 3 Yrotation Xrotation Zrotation
  JOINT RightKnee
  {
   OFFSET 0.000000 -40.546152 -0.001885
   CHANNELS 3 Yrotation Xrotation Zrotation
   JOINT RightAnkle
   {
    OFFSET 0.000000 -39.417092 -0.003189
    CHANNELS 3 Yrotation Xrotation Zrotation
    JOINT RightToe
    {
     OFFSET 0.000000 -7.579396 17.243563
     CHANNELS 3 Yrotation Xrotation Zrotation
     End Site
     {
      OFFSET 0.000000 -1.500329 6.694466
     }
    }
   }
  }
 }
 JOINT LeftHip
 {
  OFFSET 7.826875 0.019532 0.001973
  CHANNELS 3 Yrotation Xrotation Zrotation
  JOINT LeftKnee
  {
   OFFSET 0.000000 -40.546152 -0.001885
   CHANNELS 3 Yrotation Xrotation Zrotation
   JOINT LeftAnkle
   {
    OFFSET 0.000000 -39.417092 -0.003189
    CHANNELS 3 Yrotation Xrotation Zrotation
    JOINT LeftToe
    {
     OFFSET 0.000000 -7.579396 17.243563
     CHANNELS 3 Yrotation Xrotation Zrotation
     End Site
     {
      OFFSET 0.000000 -1.500329 6.694466
     }
    }
   }
  }
 }
}
MOTION
Frames: 11
Frame Time: 0.008333
17.223384 89.588508 4.370679 48.780176 -5.655491 -1.763642 -0.091622 3.034669 -0.151428 -0.022720 1.747005 0.013095 -0.028341 2.183757 0.016262 -0.022720 1.747005 0.013095 -2.648153 21.476504 0.651647 -2.988854 -2.795193 1.304048 -3.277914 -0.268368 -3.136137 6.114877 -1.304207 91.312035 10.307277 1.939879 4.240221 -1.667345 -5.607151 -0.476154 -3.226924 -0.314494 1.598778 -1.735916 -6.893277 -87.659917 0.738069 -0.398996 1.231196 0.780152 -2.500706 0.219188 -4.964475 6.255427 -0.731566 -1.272478 11.351245 0.061656 3.632438 -8.311471 3.851557 0.027172 0.490902 0.674451 -4.599878 10.519240 0.946307 -4.997515 1.927122 -1.286623 -2.783404 -4.887257 -0.759268 0.015938 0.304605 0.004175
17.186618 89.570297 4.351532 48.640252 -5.648313 -1.704092 -0.069489 3.021551 -0.176606 -0.010091 1.739902 0.012524 -0.012555 2.174877 0.015609 -0.010091 1.739901 0.012524 -2.582641 21.478431 0.645954 -2.916839 -2.795519 1.282812 -3.264813 -0.236352 -3.150166 6.315807 -1.491845 91.210572 10.250831 2.229399 4.303970 -1.686770 -5.596624 -0.486311 -3.205124 -0.292625 1.612351 -1.544496 -6.758106 -87.705360 0.847466 -0.420771 1.282015 0.770906 -2.512989 0.225900 -4.882123 6.382743 -0.760293 -1.244782 11.024637 0.054416 3.643293 -8.264052 3.724081 0.029489 0.467906 0.640251 -4.605022 10.591819 0.878438 -4.962823 1.726763 -1.259185 -2.718738 -4.844686 -0.770741 0.017113 0.335928 -0.008061
17.147467 89.550177 4.331621 48.496661 -5.652148 -1.651344 -0.048515 3.014392 -0.186490 0.002623 1.736097 0.010331 0.003329 2.170121 0.012928 0.002623 1.736096 0.010331 -2.513309 21.472277 0.637651 -2.840041 -2.805393 1.257877 -3.252081 -0.222448 -3.168776 6.514378 -1.654119 91.133923 10.203571 2.505318 4.337430 -1.718529 -5.580495 -0.486674 -3.181785 -0.275264 1.625955 -1.334764 -6.596907 -87.743136 0.912906 -0.447674 1.297488 0.753649 -2.528081 0.236716 -4.801539 6.506582 -0.785021 -1.207659 10.729038 0.049413 3.658422 -8.255164 3.604651 0.029008 0.465800 0.604539 -4.619045 10.674008 0.812040 -4.925602 1.523177 -1.225165 -2.650326 -4.776742 -0.782202 0.017694 0.345813 -0.021082
17.107156 89.528766 4.310055 48.346200 -5.668132 -1.593413 -0.025632 3.013998 -0.193468 0.016383 1.735575 0.006875 0.020514 2.169468 0.008672 0.016383 1.735574 0.006875 -2.442940 21.458801 0.626338 -2.761390 -2.823825 1.229461 -3.228114 -0.218424 -3.185472 6.695588 -1.816280 91.048091 10.151550 2.753560 4.368654 -1.760285 -5.557516 -0.477505 -3.160209 -0.260655 1.637124 -1.118108 -6.418687 -87.771027 0.945209 -0.476048 1.284666 0.728062 -2.542563 0.245692 -4.729566 6.635665 -0.822180 -1.151636 10.442125 0.054266 3.672497 -8.252702 3.491863 0.027331 0.467914 0.567053 -4.632254 10.764864 0.737244 -4.882319 1.324054 -1.188555 -2.587247 -4.711068 -0.792301 0.018723 0.355292 -0.032754
17.065004 89.506946 4.287719 48.190872 -5.695117 -1.534244 -0.002075 3.019877 -0.196238 0.030548 1.737793 0.002598 0.038202 2.172240 0.003393 0.030548 1.737792 0.002598 -2.371069 21.438398 0.612677 -2.680550 -2.850343 1.198172 -3.185910 -0.219618 -3.197186 6.854712 -1.984359 90.943778 10.097179 2.969071 4.411078 -1.804554 -5.534300 -0.466743 -3.143212 -0.247391 1.643891 -0.903723 -6.229805 -87.786569 0.953455 -0.505828 1.253024 0.695538 -2.556460 0.249761 -4.671931 6.775679 -0.867310 -1.075534 10.150452 0.069430 3.685603 -8.246033 3.381168 0.023995 0.473267 0.530715 -4.640117 10.860299 0.661722 -4.830396 1.135410 -1.155124 -2.533279 -4.648810 -0.798910 0.019476 0.363202 -0.042968
17.020302 89.485626 4.264551 48.033065 -5.727647 -1.473771 0.021004 3.029359 -0.197114 0.044531 1.741620 -0.002820 0.055657 2.177025 -0.003314 0.044531 1.741619 -0.002820 -2.296036 21.411299 0.599186 -2.596330 -2.884672 1.166330 -3.132076 -0.224145 -3.202488 6.993561 -2.149975 90.832403 10.049958 3.162161 4.460106 -1.842031 -5.521242 -0.464145 -3.129381 -0.235439 1.648669 -0.702877 -6.034761 -87.788816 0.943060 -0.534720 1.211743 0.663755 -2.569727 0.251270 -4.629118 6.922082 -0.917901 -0.981675 9.851594 0.092072 3.696483 -8.230972 3.266897 0.020426 0.481029 0.500419 -4.643683 10.952798 0.586143 -4.776669 0.959526 -1.124866 -2.482628 -4.587517 -0.802116 0.019984 0.367826 -0.052465
16.972997 89.465743 4.240492 47.879928 -5.762702 -1.410129 0.041173 3.040696 -0.198428 0.057226 1.746316 -0.009785 0.071494 2.182896 -0.011959 0.057226 1.746315 -0.009785 -2.218181 21.380041 0.586871 -2.509360 -2.923812 1.135102 -3.076373 -0.229758 -3.197602 7.116875 -2.317246 90.715077 9.998414 3.340152 4.509537 -1.864823 -5.518165 -0.470292 -3.117908 -0.223879 1.653202 -0.524979 -5.838975 -87.778818 0.922086 -0.564850 1.169867 0.635695 -2.581276 0.249251 -4.600481 7.069366 -0.972987 -0.878678 9.551579 0.116837 3.704073 -8.207636 3.149661 0.017871 0.488700 0.476665 -4.650981 11.035425 0.506244 -4.731744 0.802105 -1.093677 -2.426387 -4.526076 -0.802488 0.020783 0.367270 -0.062914
16.921391 89.448205 4.217748 47.740413 -5.798646 -1.358908 0.055378 3.052200 -0.185076 0.067678 1.751946 -0.017542 0.084524 2.189936 -0.021606 0.067679 1.751946 -0.017542 -2.139841 21.347330 0.574161 -2.421825 -2.964557 1.103350 -3.024535 -0.236187 -3.183644 7.234026 -2.492885 90.591656 9.930100 3.499331 4.550609 -1.871394 -5.517395 -0.480601 -3.109658 -0.213016 1.658115 -0.372323 -5.647423 -87.761157 0.901088 -0.593308 1.135789 0.609237 -2.587485 0.242551 -4.583260 7.215231 -1.011366 -0.784894 9.258460 0.134992 3.715668 -8.184932 3.032614 0.015070 0.500199 0.457070 -4.668051 11.099131 0.436081 -4.698517 0.673969 -1.056311 -2.361619 -4.438296 -0.803197 0.020449 0.334010 -0.075578
16.869453 89.433632 4.193834 47.610486 -5.839674 -1.291792 0.067662 3.066498 -0.186247 0.076155 1.758686 -0.024879 0.095086 2.198362 -0.030737 0.076155 1.758686 -0.024879 -2.062947 21.315025 0.560007 -2.335579 -3.004697 1.070401 -2.979023 -0.241807 -3.163223 7.352938 -2.677118 90.463139 9.846760 3.634404 4.579589 -1.864747 -5.517265 -0.493334 -3.104237 -0.200424 1.663991 -0.242028 -5.465530 -87.738622 0.888254 -0.608727 1.114072 0.589018 -2.583572 0.230355 -4.572988 7.360857 -1.062604 -0.715666 8.969303 0.141687 3.738986 -8.138143 2.920320 0.014553 0.495115 0.441797 -4.692568 11.150020 0.346315 -4.671601 0.580052 -1.015451 -2.299090 -4.385062 -0.800900 0.021062 0.320741 -0.088568
16.815711 89.422462 4.171172 47.492863 -5.884778 -1.225884 0.076249 3.081023 -0.186747 0.082455 1.765829 -0.031069 0.102932 2.207293 -0.038444 0.082456 1.765828 -0.031069 -1.987652 21.285962 0.544914 -2.250923 -3.040931 1.036839 -2.941581 -0.242924 -3.134723 7.475147 -2.866039 90.328910 9.752296 3.751027 4.596325 -1.848237 -5.515889 -0.511969 -3.099756 -0.181623 1.670547 -0.131906 -5.296949 -87.712070 0.887450 -0.607695 1.106816 0.577887 -2.569436 0.213338 -4.573978 7.506321 -1.110545 -0.670387 8.688680 0.141150 3.777571 -8.080848 2.809640 0.014359 0.483209 0.429040 -4.720477 11.188182 0.257287 -4.647235 0.515785 -0.972474 -2.243288 -4.335150 -0.797013 0.020959 0.301515 -0.101957
16.760047 89.414752 4.150228 47.386483 -5.930633 -1.165047 0.081005 3.094299 -0.185443 0.086670 1.772405 -0.035221 0.108180 2.215514 -0.043612 0.086670 1.772405 -0.035221 -1.913136 21.262272 0.529656 -2.167171 -3.070802 1.003309 -2.912095 -0.236810 -3.097247 7.594641 -3.059749 90.187259 9.647419 3.860817 4.602246 -1.828094 -5.509297 -0.539071 -3.093116 -0.158271 1.678064 -0.045100 -5.140946 -87.687805 0.901615 -0.594854 1.119532 0.574861 -2.549020 0.194009 -4.589572 7.650519 -1.154714 -0.637615 8.412416 0.140821 3.826929 -8.009911 2.698513 0.013701 0.464075 0.417402 -4.750993 11.212613 0.174745 -4.628932 0.477905 -0.929793 -2.189064 -4.289046 -0.789730 0.020421 0.278088 -0.116531
